<svg width="409" height="345" viewBox="0 0 409 345" fill="none" xmlns="http://www.w3.org/2000/svg">
<ellipse cx="204.5" cy="319.5" rx="204.5" ry="25.5" fill="url(#paint0_linear_118_146)"/>
<rect x="67" y="9" width="275" height="178" rx="11" fill="#3F858F"/>
<rect x="67" width="275" height="178" rx="11" fill="#4FB0BF"/>
<path d="M64 149.5L49.5 336.5C52.3 337.7 81 339.667 94 340.5L95 187C92 187.333 84.2 187.8 77 187C69.8 186.2 67.8333 180.667 67.5 178L67 112C66 111.667 67.3 110.8 80.5 110C97 109 86 92.4999 86 73.4999C86 58.2999 71.3333 63.4999 64 67.9999C62.5 71 67 60.4999 57 80.4999C47 100.5 57.5 134.833 64 149.5Z" fill="#CCCCCC"/>
<path d="M342 169C344.8 187 328.5 188.5 319.5 187C319.5 238.333 319.4 340.5 323 340.5C326.6 340.5 354.833 337 368 335L354 150L363 98.9999C364.568 95.4075 357.537 86.6891 356.5 81.4999C355.272 75.3565 356.5 71.4999 356.5 71.4999C356.5 71.4999 336.9 66.0999 330.5 72.4999C324.1 78.8999 324.833 94.1666 326 101L342 118V169Z" fill="#CCCCCC"/>
<path d="M329.5 187H319.5V252L342 176.5C339.579 184.5 333.5 186.5 329.5 187Z" fill="url(#paint1_linear_118_146)"/>
<path d="M95 186.5H77.4814C74.1043 186.078 69.9714 184.587 67.3091 179.318L66 176C66.377 177.246 66.818 178.346 67.3091 179.318L95 249.5V186.5Z" fill="url(#paint2_linear_118_146)"/>
<path d="M174.312 94.5V105.094H125.141L124.484 96.8906L152.938 51.75H163.672L152.047 71.2031L137.891 94.5H174.312ZM166.578 51.75V120H153.078V51.75H166.578ZM227.562 79.875V91.6875C227.562 96.8125 227.016 101.234 225.922 104.953C224.828 108.641 223.25 111.672 221.188 114.047C219.156 116.391 216.734 118.125 213.922 119.25C211.109 120.375 207.984 120.938 204.547 120.938C201.797 120.938 199.234 120.594 196.859 119.906C194.484 119.188 192.344 118.078 190.438 116.578C188.562 115.078 186.938 113.188 185.562 110.906C184.219 108.594 183.188 105.844 182.469 102.656C181.75 99.4688 181.391 95.8125 181.391 91.6875V79.875C181.391 74.75 181.938 70.3594 183.031 66.7031C184.156 63.0156 185.734 60 187.766 57.6562C189.828 55.3125 192.266 53.5938 195.078 52.5C197.891 51.375 201.016 50.8125 204.453 50.8125C207.203 50.8125 209.75 51.1719 212.094 51.8906C214.469 52.5781 216.609 53.6562 218.516 55.125C220.422 56.5938 222.047 58.4844 223.391 60.7969C224.734 63.0781 225.766 65.8125 226.484 69C227.203 72.1562 227.562 75.7812 227.562 79.875ZM214.016 93.4688V78.0469C214.016 75.5781 213.875 73.4219 213.594 71.5781C213.344 69.7344 212.953 68.1719 212.422 66.8906C211.891 65.5781 211.234 64.5156 210.453 63.7031C209.672 62.8906 208.781 62.2969 207.781 61.9219C206.781 61.5469 205.672 61.3594 204.453 61.3594C202.922 61.3594 201.562 61.6562 200.375 62.25C199.219 62.8438 198.234 63.7969 197.422 65.1094C196.609 66.3906 195.984 68.1094 195.547 70.2656C195.141 72.3906 194.938 74.9844 194.938 78.0469V93.4688C194.938 95.9375 195.062 98.1094 195.312 99.9844C195.594 101.859 196 103.469 196.531 104.812C197.094 106.125 197.75 107.203 198.5 108.047C199.281 108.859 200.172 109.453 201.172 109.828C202.203 110.203 203.328 110.391 204.547 110.391C206.047 110.391 207.375 110.094 208.531 109.5C209.719 108.875 210.719 107.906 211.531 106.594C212.375 105.25 213 103.5 213.406 101.344C213.812 99.1875 214.016 96.5625 214.016 93.4688ZM284.562 94.5V105.094H235.391L234.734 96.8906L263.188 51.75H273.922L262.297 71.2031L248.141 94.5H284.562ZM276.828 51.75V120H263.328V51.75H276.828Z" fill="white"/>
<defs>
<linearGradient id="paint0_linear_118_146" x1="217.769" y1="248.999" x2="217" y2="363" gradientUnits="userSpaceOnUse">
<stop stop-color="#4099A6"/>
<stop offset="1" stop-color="#326D76"/>
</linearGradient>
<linearGradient id="paint1_linear_118_146" x1="331.007" y1="158.5" x2="331.007" y2="252" gradientUnits="userSpaceOnUse">
<stop stop-color="#333333"/>
<stop offset="1" stop-color="#505050" stop-opacity="0.15"/>
</linearGradient>
<linearGradient id="paint2_linear_118_146" x1="80.4691" y1="157" x2="80.4691" y2="249.5" gradientUnits="userSpaceOnUse">
<stop stop-color="#333333"/>
<stop offset="1" stop-color="#505050" stop-opacity="0.15"/>
</linearGradient>
</defs>
</svg>
