<svg width="316" height="457" viewBox="0 0 316 457" fill="none" xmlns="http://www.w3.org/2000/svg">
<path d="M134 411C134 432.539 116.539 450 95 450C73.4609 450 56 432.539 56 411C56 389.461 73.4609 372 95 372C116.539 372 134 389.461 134 411Z" fill="black"/>
<path d="M236 65.5C225.499 65.5 223.25 65.5 223.25 65.5H210.5L182 76C169.333 89.8334 144.1 119.1 144.5 125.5C144.558 126.434 145.022 127.444 145.802 128.5C149.481 133.481 160.191 139.492 168.529 143.5C170.533 144.463 172.4 145.311 174 146L187 125.5L189 171.5L199.5 177.5C199.5 177.5 199.5 177.5 199.5 179.5C199.5 181.5 196.5 180.5 196.5 180.5C194.333 179 189.8 176 189 176C188.2 176 195.666 182.333 199.5 185.5L200 187L199.5 189.5H197L196.5 192.5L195 194L184.5 187L192.5 196.5C232.684 220.707 266.305 225.694 271.574 220.085C271.733 219.701 271.876 219.5 272 219.5C274.8 214.3 270.833 198 268.5 190.5C268.5 190.5 263.5 196.5 262 197C260.5 197.5 258.5 197.5 256.5 197C254.5 196.5 265 184.5 265 184.5C261.666 186.833 254.9 191.7 254.5 192.5C254.1 193.3 252.5 194 250 194C247.5 194 248.5 191.5 248.5 191.5C248.5 191.5 247.203 191.018 246.5 190.5C242.402 187.477 253.5 179.5 253.5 179.5L262 176.5L257 174.5C257 174.5 245.5 182 244 180.5C242.5 179 252.5 169.5 252.5 169.5L266.5 171.5C266.072 171.439 265.762 171.363 266.491 171.367L263.5 122L282 143.5C283.996 142.394 286.328 141.03 288.777 139.5C296.498 134.677 305.392 128.209 308.689 123C310.019 120.898 310.438 119.001 309.5 117.5C304.5 109.5 264 72 261.5 71.5C259.5 71.1 246.5 65.5 236 65.5Z" fill="#4FB0BF"/>
<path d="M266.5 171.5L252.5 169.5C252.5 169.5 242.5 179 244 180.5C245.5 182 257 174.5 257 174.5L262 176.5L253.5 179.5C253.5 179.5 242.402 187.477 246.5 190.5C247.203 191.018 248.5 191.5 248.5 191.5C248.5 191.5 247.5 194 250 194C252.5 194 254.1 193.3 254.5 192.5C254.9 191.7 261.666 186.833 265 184.5C265 184.5 254.5 196.5 256.5 197C258.5 197.5 260.5 197.5 262 197C263.5 196.5 268.5 190.5 268.5 190.5C268.5 190.5 271 191.5 273.5 191.5C276 191.5 279 189.5 279 189.5C292.5 173.333 318.7 139.4 315.5 133C312.3 126.6 309.626 123.667 308.689 123C305.392 128.209 296.498 134.677 288.777 139.5C288.5 140.5 274.617 171.802 269.5 171.5C267.885 171.405 266.967 171.369 266.491 171.367L266.5 171.5Z" fill="url(#paint0_linear_125_250)"/>
<path d="M189 171.5L184.5 173.5L168.529 143.5C160.191 139.492 149.481 133.481 145.802 128.5C143.701 130.833 139.8 137.1 141 143.5C142.2 149.9 166.5 181.5 178.5 196.5H182H192.5L184.5 187L195 194L196.5 192.5L197 189.5H199.5L200 187L199.5 185.5C195.666 182.333 188.2 176 189 176C189.8 176 194.333 179 196.5 180.5C196.5 180.5 199.5 181.5 199.5 179.5C199.5 177.5 199.5 177.5 199.5 177.5L189 171.5Z" fill="url(#paint1_linear_125_250)"/>
<path d="M182 196.5H178.5C176.9 196.9 144.5 225 128.5 239C134.935 239.274 150.232 244.631 167.241 262.5C170.937 266.384 174.715 270.858 178.5 276L208.5 249L204.5 289L219.5 291.432L256 297.351L260 298C262.97 273.456 269.166 225.889 271.574 220.085C266.305 225.694 232.684 220.707 192.5 196.5H182Z" fill="#206A76"/>
<path d="M160 266.5C169.2 272.1 176.166 275.167 178.5 276C174.715 270.858 170.937 266.384 167.241 262.5L160 266.5Z" fill="#15545E"/>
<path d="M204.5 289C206.5 290.667 212.3 293.9 219.5 293.5V291.432L204.5 289Z" fill="#15545E"/>
<path d="M219.5 291.432V293.5V327C229.833 329.833 251.6 333.8 256 327V297.351L219.5 291.432Z" fill="#D9D9D9"/>
<path d="M167.241 262.5C150.232 244.631 134.935 239.274 128.5 239C117.5 239 111 266.5 112.5 269.5C113.7 271.9 137 274.833 148.5 276V273L160 266.5L167.241 262.5Z" fill="#D9D9D9"/>
<path d="M256 327C251.6 333.8 229.833 329.833 219.5 327L225.5 413H248.5L256 327Z" fill="#4FB0BF"/>
<path d="M148.5 276C137 274.833 113.7 271.9 112.5 269.5L116 308.25L119.5 347L142.5 367.184L148.5 276Z" fill="#4FB0BF"/>
<path d="M225.5 413L219.5 444C216.833 447 215.2 453.5 225.5 455.5C240.161 458.347 248 456.333 250 455.5C254.666 454.333 259.2 450.4 256 444C252.8 437.6 251 420.667 248.5 413H225.5Z" fill="#909090"/>
<path d="M119.5 347L115 359C103.5 362.333 77.6997 368 66.4997 364C64.4997 366.5 61.9997 372.3 67.9997 375.5C75.4997 379.5 79 383 92 385C102.4 386.6 109 385.667 111 385L133.5 395C135.667 394.833 140.5 393.9 142.5 391.5C144.5 389.1 144.333 375.167 144 368.5L142.5 367.184L119.5 347Z" fill="#909090"/>
<path d="M183.972 22.437C182.885 14.752 188.257 7.64909 195.947 6.60314L224.123 2.77121C233.907 1.44064 241.957 10.3835 239.608 19.9738L236.663 32L232.936 44L228.39 58.635C227.861 60.3389 226.284 61.5 224.5 61.5V61.5H208.5H201.658C194.684 61.5 188.774 56.3669 187.796 49.4616L183.972 22.437Z" fill="#D9D9D9"/>
<path d="M238 40.5C241 35.5 236.663 32 236.663 32L232.936 44C232.936 44 235 45.5 238 40.5Z" fill="url(#paint2_linear_125_250)"/>
<path d="M224.5 61.5H208.5L209.695 70.6602C209.897 72.2092 210.277 73.8128 211.454 74.8408C212.52 75.7731 214.065 76.4837 216 76C219.2 75.2 222.5 74.5 224.5 69V61.5Z" fill="url(#paint3_linear_125_250)"/>
<path d="M210.203 22.5316C209.358 22.0527 208.395 22.9386 208.802 23.8207L210.252 26.9627C210.405 27.294 210.726 27.5158 211.09 27.5412L218.494 28.0577C219.729 28.1439 219.988 26.3504 218.779 26.0836L215.147 25.2824C215.049 25.2609 214.956 25.225 214.869 25.1759L210.203 22.5316Z" fill="#585858"/>
<path d="M198.797 22.5316C199.642 22.0527 200.605 22.9386 200.198 23.8207L198.748 26.9627C198.595 27.294 198.274 27.5158 197.91 27.5412L190.506 28.0577C189.271 28.1439 189.012 26.3504 190.221 26.0836L193.853 25.2824C193.951 25.2609 194.044 25.225 194.131 25.1759L198.797 22.5316Z" fill="#585858"/>
<path d="M212.323 30.4533C212.424 30.7873 212.892 31.8294 212.523 32.1571C212.293 32.3613 211.806 31.4658 211.76 31.3275C211.594 30.8298 211.786 30.518 212.19 30.72" stroke="#4FB0BF" stroke-width="3" stroke-linecap="round"/>
<path d="M194.988 31.9201C194.988 30.5292 196.308 31.7774 196.04 32.5794C195.767 33.3998 195.087 31.8389 195.388 31.3867" stroke="#4FB0BF" stroke-width="3" stroke-linecap="round"/>
<path d="M200.714 48.5039C205.586 47.8543 210.977 49.1089 215.399 51.119" stroke="#545454" stroke-width="2" stroke-linecap="round"/>
<path d="M29.2031 196.922L18.4219 194.344L22.3125 159.75H60.6562V170.672H33.4219L31.7344 185.812C32.6406 185.281 34.0156 184.719 35.8594 184.125C37.7031 183.5 39.7656 183.188 42.0469 183.188C45.3594 183.188 48.2969 183.703 50.8594 184.734C53.4219 185.766 55.5938 187.266 57.375 189.234C59.1875 191.203 60.5625 193.609 61.5 196.453C62.4375 199.297 62.9062 202.516 62.9062 206.109C62.9062 209.141 62.4375 212.031 61.5 214.781C60.5625 217.5 59.1406 219.938 57.2344 222.094C55.3281 224.219 52.9375 225.891 50.0625 227.109C47.1875 228.328 43.7812 228.938 39.8438 228.938C36.9062 228.938 34.0625 228.5 31.3125 227.625C28.5938 226.75 26.1406 225.453 23.9531 223.734C21.7969 222.016 20.0625 219.938 18.75 217.5C17.4688 215.031 16.7969 212.219 16.7344 209.062H30.1406C30.3281 211 30.8281 212.672 31.6406 214.078C32.4844 215.453 33.5938 216.516 34.9688 217.266C36.3438 218.016 37.9531 218.391 39.7969 218.391C41.5156 218.391 42.9844 218.062 44.2031 217.406C45.4219 216.75 46.4062 215.844 47.1562 214.688C47.9062 213.5 48.4531 212.125 48.7969 210.562C49.1719 208.969 49.3594 207.25 49.3594 205.406C49.3594 203.562 49.1406 201.891 48.7031 200.391C48.2656 198.891 47.5938 197.594 46.6875 196.5C45.7812 195.406 44.625 194.562 43.2188 193.969C41.8438 193.375 40.2344 193.078 38.3906 193.078C35.8906 193.078 33.9531 193.469 32.5781 194.25C31.2344 195.031 30.1094 195.922 29.2031 196.922ZM117.562 187.875V199.688C117.562 204.812 117.016 209.234 115.922 212.953C114.828 216.641 113.25 219.672 111.188 222.047C109.156 224.391 106.734 226.125 103.922 227.25C101.109 228.375 97.9844 228.938 94.5469 228.938C91.7969 228.938 89.2344 228.594 86.8594 227.906C84.4844 227.188 82.3438 226.078 80.4375 224.578C78.5625 223.078 76.9375 221.188 75.5625 218.906C74.2188 216.594 73.1875 213.844 72.4688 210.656C71.75 207.469 71.3906 203.812 71.3906 199.688V187.875C71.3906 182.75 71.9375 178.359 73.0312 174.703C74.1562 171.016 75.7344 168 77.7656 165.656C79.8281 163.312 82.2656 161.594 85.0781 160.5C87.8906 159.375 91.0156 158.812 94.4531 158.812C97.2031 158.812 99.75 159.172 102.094 159.891C104.469 160.578 106.609 161.656 108.516 163.125C110.422 164.594 112.047 166.484 113.391 168.797C114.734 171.078 115.766 173.812 116.484 177C117.203 180.156 117.562 183.781 117.562 187.875ZM104.016 201.469V186.047C104.016 183.578 103.875 181.422 103.594 179.578C103.344 177.734 102.953 176.172 102.422 174.891C101.891 173.578 101.234 172.516 100.453 171.703C99.6719 170.891 98.7812 170.297 97.7812 169.922C96.7812 169.547 95.6719 169.359 94.4531 169.359C92.9219 169.359 91.5625 169.656 90.375 170.25C89.2188 170.844 88.2344 171.797 87.4219 173.109C86.6094 174.391 85.9844 176.109 85.5469 178.266C85.1406 180.391 84.9375 182.984 84.9375 186.047V201.469C84.9375 203.938 85.0625 206.109 85.3125 207.984C85.5938 209.859 86 211.469 86.5312 212.812C87.0938 214.125 87.75 215.203 88.5 216.047C89.2812 216.859 90.1719 217.453 91.1719 217.828C92.2031 218.203 93.3281 218.391 94.5469 218.391C96.0469 218.391 97.375 218.094 98.5312 217.5C99.7188 216.875 100.719 215.906 101.531 214.594C102.375 213.25 103 211.5 103.406 209.344C103.812 207.188 104.016 204.562 104.016 201.469ZM172.688 187.875V199.688C172.688 204.812 172.141 209.234 171.047 212.953C169.953 216.641 168.375 219.672 166.312 222.047C164.281 224.391 161.859 226.125 159.047 227.25C156.234 228.375 153.109 228.938 149.672 228.938C146.922 228.938 144.359 228.594 141.984 227.906C139.609 227.188 137.469 226.078 135.562 224.578C133.688 223.078 132.062 221.188 130.688 218.906C129.344 216.594 128.312 213.844 127.594 210.656C126.875 207.469 126.516 203.812 126.516 199.688V187.875C126.516 182.75 127.062 178.359 128.156 174.703C129.281 171.016 130.859 168 132.891 165.656C134.953 163.312 137.391 161.594 140.203 160.5C143.016 159.375 146.141 158.812 149.578 158.812C152.328 158.812 154.875 159.172 157.219 159.891C159.594 160.578 161.734 161.656 163.641 163.125C165.547 164.594 167.172 166.484 168.516 168.797C169.859 171.078 170.891 173.812 171.609 177C172.328 180.156 172.688 183.781 172.688 187.875ZM159.141 201.469V186.047C159.141 183.578 159 181.422 158.719 179.578C158.469 177.734 158.078 176.172 157.547 174.891C157.016 173.578 156.359 172.516 155.578 171.703C154.797 170.891 153.906 170.297 152.906 169.922C151.906 169.547 150.797 169.359 149.578 169.359C148.047 169.359 146.688 169.656 145.5 170.25C144.344 170.844 143.359 171.797 142.547 173.109C141.734 174.391 141.109 176.109 140.672 178.266C140.266 180.391 140.062 182.984 140.062 186.047V201.469C140.062 203.938 140.188 206.109 140.438 207.984C140.719 209.859 141.125 211.469 141.656 212.812C142.219 214.125 142.875 215.203 143.625 216.047C144.406 216.859 145.297 217.453 146.297 217.828C147.328 218.203 148.453 218.391 149.672 218.391C151.172 218.391 152.5 218.094 153.656 217.5C154.844 216.875 155.844 215.906 156.656 214.594C157.5 213.25 158.125 211.5 158.531 209.344C158.938 207.188 159.141 204.562 159.141 201.469Z" fill="#909090"/>
<defs>
<linearGradient id="paint0_linear_125_250" x1="264.5" y1="193.12" x2="298.552" y2="122.078" gradientUnits="userSpaceOnUse">
<stop stop-color="#D9D9D9"/>
<stop offset="1" stop-color="#AEAEAE"/>
</linearGradient>
<linearGradient id="paint1_linear_125_250" x1="195.5" y1="210.5" x2="146.5" y2="85.5" gradientUnits="userSpaceOnUse">
<stop stop-color="#D9D9D9"/>
<stop offset="1" stop-color="#BABABA"/>
</linearGradient>
<linearGradient id="paint2_linear_125_250" x1="235.977" y1="49.6169" x2="225.238" y2="46.8127" gradientUnits="userSpaceOnUse">
<stop stop-color="#D9D9D9"/>
<stop offset="1" stop-color="#737373"/>
</linearGradient>
<linearGradient id="paint3_linear_125_250" x1="217.368" y1="76.487" x2="232.21" y2="43.2153" gradientUnits="userSpaceOnUse">
<stop stop-color="#D9D9D9"/>
<stop offset="1" stop-color="#737373"/>
</linearGradient>
</defs>
</svg>
