<svg width="21" height="22" viewBox="0 0 21 22" fill="none" xmlns="http://www.w3.org/2000/svg">
<g clip-path="url(#clip0_75_442)">
<path d="M10.5 21.5C4.71012 21.5 0 16.7899 0 11C0 5.21012 4.71012 0.5 10.5 0.5C16.2899 0.5 21 5.21012 21 11C21 16.7899 16.2899 21.5 10.5 21.5ZM10.5 2.25C5.67525 2.25 1.75 6.17525 1.75 11C1.75 15.8247 5.67525 19.75 10.5 19.75C15.3247 19.75 19.25 15.8247 19.25 11C19.25 6.17525 15.3247 2.25 10.5 2.25ZM14.875 11C14.875 10.5161 14.4839 10.125 14 10.125H11.375V5.75C11.375 5.26613 10.983 4.875 10.5 4.875C10.017 4.875 9.625 5.26613 9.625 5.75V11C9.625 11.4839 10.017 11.875 10.5 11.875H14C14.4839 11.875 14.875 11.4839 14.875 11Z" fill="black"/>
</g>
<defs>
<clipPath id="clip0_75_442">
<rect width="21" height="21" fill="white" transform="translate(0 0.5)"/>
</clipPath>
</defs>
</svg>
