<svg width="14" height="14" viewBox="0 0 14 14" fill="none" xmlns="http://www.w3.org/2000/svg">
<path d="M9.91667 5.85608C7.66558 5.85608 5.83333 7.68775 5.83333 9.93942C5.83333 12.1782 7.66558 14 9.91667 14C12.1677 14 14 12.1683 14 9.91667C14 7.67783 12.1677 5.85608 9.91667 5.85608ZM9.91667 12.8333C8.30842 12.8333 7 11.5348 7 9.93942C7 8.33117 8.30842 7.02275 9.91667 7.02275C11.5249 7.02275 12.8333 8.32125 12.8333 9.91667C12.8333 11.5249 11.5249 12.8333 9.91667 12.8333ZM10.9124 10.0876C11.1405 10.3157 11.1405 10.6843 10.9124 10.9124C10.7987 11.0262 10.6493 11.0833 10.5 11.0833C10.3507 11.0833 10.2013 11.0262 10.0876 10.9124L9.50425 10.3291C9.39458 10.2194 9.33333 10.0712 9.33333 9.91667V8.75C9.33333 8.428 9.59408 8.16667 9.91667 8.16667C10.2392 8.16667 10.5 8.428 10.5 8.75V9.67517L10.9124 10.0876ZM14 4.08333V5.25C14 5.572 13.7392 5.83333 13.4167 5.83333C13.0941 5.83333 12.8333 5.572 12.8333 5.25V4.08333C12.8333 3.1185 12.0482 2.33333 11.0833 2.33333H2.91667C1.95183 2.33333 1.16667 3.1185 1.16667 4.08333V4.66667H6.41667C6.73867 4.66667 7 4.928 7 5.25C7 5.572 6.73867 5.83333 6.41667 5.83333H1.16667V11.0833C1.16667 12.0482 1.95183 12.8333 2.91667 12.8333H5.25C5.572 12.8333 5.83333 13.0947 5.83333 13.4167C5.83333 13.7387 5.572 14 5.25 14H2.91667C1.30842 14 0 12.6916 0 11.0833V4.08333C0 2.47508 1.30842 1.16667 2.91667 1.16667H3.5V0.583333C3.5 0.261333 3.76133 0 4.08333 0C4.40533 0 4.66667 0.261333 4.66667 0.583333V1.16667H9.33333V0.583333C9.33333 0.261333 9.59408 0 9.91667 0C10.2392 0 10.5 0.261333 10.5 0.583333V1.16667H11.0833C12.6916 1.16667 14 2.47508 14 4.08333Z" fill="#515151"/>
</svg>
