<svg width="14" height="14" viewBox="0 0 14 14" fill="none" xmlns="http://www.w3.org/2000/svg">
<path d="M14 7C14 7.15471 13.9385 7.30308 13.8291 7.41248C13.7197 7.52187 13.5714 7.58333 13.4167 7.58333C13.262 7.58333 13.1136 7.52187 13.0042 7.41248C12.8948 7.30308 12.8333 7.15471 12.8333 7C12.8316 5.45342 12.2165 3.97068 11.1229 2.87709C10.0293 1.78349 8.54657 1.16837 7 1.16667C6.84529 1.16667 6.69692 1.10521 6.58752 0.995812C6.47812 0.886416 6.41667 0.738043 6.41667 0.583333C6.41667 0.428624 6.47812 0.280251 6.58752 0.170854C6.69692 0.0614582 6.84529 0 7 0C8.8559 0.0020073 10.6352 0.74015 11.9475 2.05247C13.2599 3.36479 13.998 5.1441 14 7ZM9.33333 7.58333C9.48804 7.58333 9.63642 7.52187 9.74581 7.41248C9.85521 7.30308 9.91667 7.15471 9.91667 7C9.91667 6.84529 9.85521 6.69692 9.74581 6.58752C9.63642 6.47812 9.48804 6.41667 9.33333 6.41667H8.00508C7.90342 6.24192 7.75808 6.09658 7.58333 5.99492V4.08333C7.58333 3.92862 7.52187 3.78025 7.41248 3.67085C7.30308 3.56146 7.15471 3.5 7 3.5C6.84529 3.5 6.69692 3.56146 6.58752 3.67085C6.47812 3.78025 6.41667 3.92862 6.41667 4.08333V5.99492C6.26195 6.084 6.12982 6.2075 6.0305 6.35586C5.93118 6.50421 5.86735 6.67344 5.84395 6.85043C5.82054 7.02742 5.83819 7.20742 5.89553 7.37649C5.95286 7.54557 6.04835 7.69917 6.17459 7.82541C6.30083 7.95165 6.45443 8.04714 6.62351 8.10447C6.79258 8.16181 6.97258 8.17946 7.14957 8.15605C7.32656 8.13265 7.49579 8.06881 7.64414 7.9695C7.7925 7.87018 7.916 7.73805 8.00508 7.58333H9.33333ZM1.06575 3.95733C0.950378 3.95733 0.837596 3.99155 0.741668 4.05564C0.645739 4.11974 0.570972 4.21084 0.526821 4.31743C0.482669 4.42402 0.471117 4.54131 0.493626 4.65447C0.516134 4.76762 0.571691 4.87156 0.653271 4.95315C0.734852 5.03473 0.838792 5.09028 0.951948 5.11279C1.0651 5.1353 1.18239 5.12375 1.28898 5.0796C1.39557 5.03544 1.48668 4.96068 1.55077 4.86475C1.61487 4.76882 1.64908 4.65604 1.64908 4.54067C1.64908 4.38596 1.58763 4.23758 1.47823 4.12819C1.36883 4.01879 1.22046 3.95733 1.06575 3.95733ZM1.16667 7C1.16667 6.88463 1.13246 6.77185 1.06836 6.67592C1.00426 6.57999 0.913156 6.50522 0.806566 6.46107C0.699975 6.41692 0.582687 6.40537 0.469531 6.42787C0.356375 6.45038 0.252435 6.50594 0.170855 6.58752C0.089274 6.6691 0.0337169 6.77304 0.0112088 6.8862C-0.0112992 6.99935 0.000252747 7.11664 0.0444039 7.22323C0.088555 7.32982 0.163322 7.42093 0.259251 7.48502C0.35518 7.54912 0.467961 7.58333 0.583334 7.58333C0.738043 7.58333 0.886416 7.52187 0.995813 7.41248C1.10521 7.30308 1.16667 7.15471 1.16667 7ZM7 12.8333C6.88463 12.8333 6.77185 12.8675 6.67592 12.9316C6.57999 12.9957 6.50522 13.0868 6.46107 13.1934C6.41692 13.3 6.40537 13.4173 6.42787 13.5305C6.45038 13.6436 6.50594 13.7476 6.58752 13.8291C6.6691 13.9107 6.77304 13.9663 6.8862 13.9888C6.99935 14.0113 7.11664 13.9997 7.22323 13.9556C7.32982 13.9114 7.42093 13.8367 7.48502 13.7407C7.54912 13.6448 7.58333 13.532 7.58333 13.4167C7.58333 13.262 7.52187 13.1136 7.41248 13.0042C7.30308 12.8948 7.15471 12.8333 7 12.8333ZM2.46225 1.87075C2.34688 1.87075 2.2341 1.90496 2.13817 1.96906C2.04224 2.03316 1.96747 2.12426 1.92332 2.23085C1.87917 2.33744 1.86762 2.45473 1.89013 2.56789C1.91263 2.68104 1.96819 2.78498 2.04977 2.86656C2.13135 2.94814 2.23529 3.0037 2.34845 3.02621C2.4616 3.04872 2.57889 3.03716 2.68548 2.99301C2.79207 2.94886 2.88318 2.87409 2.94727 2.77817C3.01137 2.68224 3.04558 2.56946 3.04558 2.45408C3.04558 2.29937 2.98413 2.151 2.87473 2.0416C2.76533 1.93221 2.61696 1.87075 2.46225 1.87075ZM4.53775 0.490583C4.42238 0.490583 4.3096 0.524795 4.21367 0.588893C4.11774 0.65299 4.04297 0.744094 3.99882 0.850685C3.95467 0.957275 3.94312 1.07456 3.96563 1.18772C3.98813 1.30087 4.04369 1.40481 4.12527 1.4864C4.20685 1.56798 4.31079 1.62353 4.42395 1.64604C4.5371 1.66855 4.65439 1.657 4.76098 1.61285C4.86757 1.5687 4.95868 1.49393 5.02277 1.398C5.08687 1.30207 5.12108 1.18929 5.12108 1.07392C5.12108 0.919207 5.05963 0.770834 4.95023 0.661438C4.84083 0.552041 4.69246 0.490583 4.53775 0.490583ZM1.06575 8.876C0.950378 8.876 0.837596 8.91021 0.741668 8.97431C0.645739 9.03841 0.570972 9.12951 0.526821 9.2361C0.482669 9.34269 0.471117 9.45998 0.493626 9.57314C0.516134 9.68629 0.571691 9.79023 0.653271 9.87181C0.734852 9.95339 0.838792 10.0089 0.951948 10.0315C1.0651 10.054 1.18239 10.0424 1.28898 9.99826C1.39557 9.95411 1.48668 9.87934 1.55077 9.78342C1.61487 9.68749 1.64908 9.57471 1.64908 9.45933C1.64908 9.30462 1.58763 9.15625 1.47823 9.04685C1.36883 8.93746 1.22046 8.876 1.06575 8.876ZM2.46225 10.9626C2.34688 10.9626 2.2341 10.9968 2.13817 11.0609C2.04224 11.125 1.96747 11.2161 1.92332 11.3227C1.87917 11.4293 1.86762 11.5466 1.89013 11.6597C1.91263 11.7729 1.96819 11.8768 2.04977 11.9584C2.13135 12.04 2.23529 12.0955 2.34845 12.118C2.4616 12.1405 2.57889 12.129 2.68548 12.0848C2.79207 12.0407 2.88318 11.9659 2.94727 11.87C3.01137 11.7741 3.04558 11.6613 3.04558 11.5459C3.04558 11.3912 2.98413 11.2428 2.87473 11.1334C2.76533 11.024 2.61696 10.9626 2.46225 10.9626ZM4.53775 12.3427C4.42238 12.3427 4.3096 12.377 4.21367 12.4411C4.11774 12.5052 4.04297 12.5963 3.99882 12.7029C3.95467 12.8094 3.94312 12.9267 3.96563 13.0399C3.98813 13.153 4.04369 13.257 4.12527 13.3386C4.20685 13.4201 4.31079 13.4757 4.42395 13.4982C4.5371 13.5207 4.65439 13.5092 4.76098 13.465C4.86757 13.4209 4.95868 13.3461 5.02277 13.2502C5.08687 13.1542 5.12108 13.0415 5.12108 12.9261C5.12108 12.7714 5.05963 12.623 4.95023 12.5136C4.84083 12.4042 4.69246 12.3427 4.53775 12.3427ZM12.9342 8.876C12.8189 8.876 12.7061 8.91021 12.6102 8.97431C12.5142 9.03841 12.4395 9.12951 12.3953 9.2361C12.3512 9.34269 12.3396 9.45998 12.3621 9.57314C12.3846 9.68629 12.4402 9.79023 12.5218 9.87181C12.6034 9.95339 12.7073 10.0089 12.8204 10.0315C12.9336 10.054 13.0509 10.0424 13.1575 9.99826C13.2641 9.95411 13.3552 9.87934 13.4193 9.78342C13.4834 9.68749 13.5176 9.57471 13.5176 9.45933C13.5176 9.30462 13.4561 9.15625 13.3467 9.04685C13.2373 8.93746 13.089 8.876 12.9342 8.876ZM11.5377 10.9626C11.4224 10.9626 11.3096 10.9968 11.2137 11.0609C11.1177 11.125 11.043 11.2161 10.9988 11.3227C10.9547 11.4293 10.9431 11.5466 10.9656 11.6597C10.9881 11.7729 11.0437 11.8768 11.1253 11.9584C11.2069 12.04 11.3108 12.0955 11.4239 12.118C11.5371 12.1405 11.6544 12.129 11.761 12.0848C11.8676 12.0407 11.9587 11.9659 12.0228 11.87C12.0869 11.7741 12.1211 11.6613 12.1211 11.5459C12.1211 11.3912 12.0596 11.2428 11.9502 11.1334C11.8408 11.024 11.6925 10.9626 11.5377 10.9626ZM9.46225 12.3427C9.34688 12.3427 9.2341 12.377 9.13817 12.4411C9.04224 12.5052 8.96747 12.5963 8.92332 12.7029C8.87917 12.8094 8.86762 12.9267 8.89012 13.0399C8.91263 13.153 8.96819 13.257 9.04977 13.3386C9.13135 13.4201 9.23529 13.4757 9.34845 13.4982C9.4616 13.5207 9.57889 13.5092 9.68548 13.465C9.79207 13.4209 9.88318 13.3461 9.94727 13.2502C10.0114 13.1542 10.0456 13.0415 10.0456 12.9261C10.0456 12.7714 9.98412 12.623 9.87473 12.5136C9.76533 12.4042 9.61696 12.3427 9.46225 12.3427Z" fill="white"/>
</svg>
