<svg width="19" height="19" viewBox="0 0 19 19" fill="none" xmlns="http://www.w3.org/2000/svg">
<g clip-path="url(#clip0_6_1519)">
<path d="M9.50249 -0.00170898C4.24769 -0.00170898 -0.012207 4.25819 -0.012207 9.51299C-0.012207 14.7678 4.24769 19.0276 9.50249 19.0276C14.7573 19.0276 19.0171 14.7678 19.0171 9.51299C19.0171 4.25819 14.7573 -0.00170898 9.50249 -0.00170898ZM15.3994 6.99679L16.0137 5.01051C16.8416 6.21044 17.3198 7.6167 17.3952 9.07253L15.6995 7.87791C15.4191 7.68023 15.2979 7.3245 15.3994 6.99679ZM11.5582 1.86281H11.5519L9.96854 3.01547C9.691 3.21723 9.31509 3.21723 9.03755 3.01547L7.4542 1.86281C8.79685 1.49024 10.2156 1.49024 11.5582 1.86281ZM2.98604 5.01128L3.60039 6.99679C3.70185 7.3245 3.58069 7.68023 3.30036 7.87791L1.60461 9.07253C1.67998 7.61696 2.15825 6.21092 2.98604 5.01128ZM3.17211 14.2374L5.34683 14.2445C5.69013 14.2452 5.99387 14.4671 6.09893 14.7939L6.78293 16.9259C5.3452 16.3967 4.0912 15.463 3.17211 14.2374ZM12.2177 16.9259L12.9009 14.7939C13.0058 14.4673 13.3092 14.2455 13.6522 14.2445L15.8277 14.2374C14.9091 15.4632 13.6553 16.3969 12.2177 16.9259ZM16.7587 12.6509L13.6474 12.6612C12.6173 12.6625 11.7062 13.3295 11.3935 14.311L10.4158 17.3589C9.8076 17.436 9.19211 17.436 8.58392 17.3589L7.6062 14.3102C7.29322 13.3287 6.38174 12.6621 5.35154 12.6612L2.24107 12.6517C2.00168 12.0994 1.82664 11.5213 1.71935 10.929L4.21232 9.17229C5.055 8.58084 5.41916 7.51275 5.11323 6.52969L4.2147 3.62269C4.66877 3.21007 5.1693 2.85167 5.7062 2.55472L8.10335 4.29637C8.93542 4.90341 10.0643 4.90341 10.8964 4.29637L13.2935 2.55472C13.8303 2.85185 14.3308 3.21022 14.785 3.62269L13.8865 6.52969C13.5806 7.51272 13.9447 8.5808 14.7874 9.17229L17.2804 10.929C17.1732 11.5211 16.9981 12.0988 16.7587 12.6509Z" fill="#6E6E6E"/>
<path d="M12.1805 7.30233L10.6629 6.20033C9.97008 5.69445 9.02973 5.69445 8.33697 6.20033L6.81934 7.30233C6.12254 7.80579 5.83179 8.70239 6.1005 9.51898L6.68 11.3026C6.94485 12.1174 7.705 12.6684 8.56178 12.6666H10.438C11.2957 12.6667 12.0558 12.1144 12.3206 11.2986L12.8993 9.51501C13.1664 8.69961 12.8758 7.80509 12.1805 7.30233ZM11.3936 9.02576L10.8148 10.8094C10.762 10.9728 10.6097 11.0834 10.438 11.0833H8.56174C8.39029 11.0831 8.23852 10.9725 8.18571 10.8094L7.60625 9.02498C7.55292 8.86159 7.61115 8.68246 7.75034 8.58164L9.26719 7.48123C9.40598 7.38037 9.59394 7.38037 9.73269 7.48123L11.2503 8.58323C11.3888 8.68417 11.4467 8.86278 11.3936 9.02576Z" fill="#6E6E6E"/>
</g>
<defs>
<clipPath id="clip0_6_1519">
<rect width="19" height="19" fill="white"/>
</clipPath>
</defs>
</svg>
