<svg width="18" height="22" viewBox="0 0 18 22" fill="none" xmlns="http://www.w3.org/2000/svg">
<path d="M8.79781 5.75171C8.10558 5.75171 7.4289 5.95698 6.85334 6.34156C6.27777 6.72614 5.82917 7.27275 5.56427 7.91229C5.29937 8.55182 5.23006 9.25554 5.3651 9.93447C5.50015 10.6134 5.83349 11.237 6.32297 11.7265C6.81244 12.216 7.43607 12.5493 8.115 12.6844C8.79392 12.8194 9.49765 12.7501 10.1372 12.4852C10.7767 12.2203 11.3233 11.7717 11.7079 11.1961C12.0925 10.6206 12.2978 9.94389 12.2978 9.25166C12.2978 8.32342 11.929 7.43319 11.2726 6.77682C10.6163 6.12045 9.72605 5.75171 8.79781 5.75171ZM8.79781 11.0016C8.45169 11.0016 8.11335 10.899 7.82557 10.7067C7.53779 10.5144 7.31349 10.2411 7.18104 9.92135C7.04859 9.60158 7.01393 9.24972 7.08145 8.91026C7.14898 8.5708 7.31565 8.25898 7.56039 8.01424C7.80512 7.7695 8.11694 7.60283 8.4564 7.53531C8.79586 7.46779 9.14773 7.50244 9.46749 7.63489C9.78726 7.76735 10.0606 7.99164 10.2529 8.27943C10.4451 8.56721 10.5478 8.90555 10.5478 9.25166C10.5478 9.71578 10.3634 10.1609 10.0352 10.4891C9.70704 10.8173 9.26193 11.0016 8.79781 11.0016Z" fill="black"/>
<path d="M8.79801 21.5015C8.06122 21.5052 7.33425 21.3324 6.67797 20.9975C6.02169 20.6626 5.4552 20.1753 5.02593 19.5765C1.69135 14.9767 0 11.5187 0 9.29801C0 6.96463 0.92693 4.72682 2.57688 3.07688C4.22682 1.42693 6.46463 0.5 8.79801 0.5C11.1314 0.5 13.3692 1.42693 15.0191 3.07688C16.6691 4.72682 17.596 6.96463 17.596 9.29801C17.596 11.5187 15.9047 14.9767 12.5701 19.5765C12.1408 20.1753 11.5743 20.6626 10.918 20.9975C10.2618 21.3324 9.53479 21.5052 8.79801 21.5015ZM8.79801 2.4101C6.97139 2.41218 5.22019 3.13872 3.92858 4.43033C2.63697 5.72194 1.91043 7.47315 1.90835 9.29976C1.90835 11.0585 3.5647 14.3108 6.57116 18.4574C6.82639 18.8089 7.16123 19.0951 7.54827 19.2924C7.93532 19.4896 8.36358 19.5925 8.79801 19.5925C9.23244 19.5925 9.66069 19.4896 10.0477 19.2924C10.4348 19.0951 10.7696 18.8089 11.0249 18.4574C14.0313 14.3108 15.6877 11.0585 15.6877 9.29976C15.6856 7.47315 14.959 5.72194 13.6674 4.43033C12.3758 3.13872 10.6246 2.41218 8.79801 2.4101Z" fill="black"/>
</svg>
