<svg width="14" height="19" viewBox="0 0 14 19" fill="none" xmlns="http://www.w3.org/2000/svg">
<path d="M6.87484 9.16667C7.78133 9.16667 8.66747 8.89786 9.4212 8.39424C10.1749 7.89061 10.7624 7.17479 11.1093 6.3373C11.4562 5.49981 11.547 4.57825 11.3701 3.68917C11.1933 2.80009 10.7567 1.98342 10.1157 1.34243C9.47475 0.701438 8.65808 0.264918 7.769 0.0880695C6.87992 -0.0887794 5.95837 0.00198589 5.12087 0.348887C4.28338 0.695789 3.56756 1.28325 3.06393 2.03697C2.56031 2.7907 2.2915 3.67684 2.2915 4.58333C2.29272 5.79854 2.77599 6.96362 3.63527 7.8229C4.49455 8.68218 5.65963 9.16545 6.87484 9.16667ZM6.87484 1.52778C7.47917 1.52778 8.06993 1.70698 8.57241 2.04273C9.07489 2.37848 9.46653 2.85569 9.6978 3.41402C9.92907 3.97235 9.98958 4.58672 9.87168 5.17944C9.75378 5.77216 9.46277 6.31661 9.03544 6.74394C8.60811 7.17127 8.06366 7.46228 7.47095 7.58018C6.87823 7.69808 6.26386 7.63757 5.70553 7.4063C5.1472 7.17503 4.66998 6.78339 4.33424 6.28091C3.99849 5.77843 3.81928 5.18767 3.81928 4.58333C3.81928 3.77295 4.1412 2.99576 4.71423 2.42273C5.28726 1.8497 6.06445 1.52778 6.87484 1.52778Z" fill="#6E6E6E"/>
<path d="M6.875 10.6945C5.05226 10.6965 3.30475 11.4215 2.01587 12.7103C0.726999 13.9992 0.0020219 15.7467 0 17.5695C0 17.7721 0.0804809 17.9664 0.223738 18.1096C0.366995 18.2529 0.561293 18.3333 0.763889 18.3333C0.966485 18.3333 1.16078 18.2529 1.30404 18.1096C1.4473 17.9664 1.52778 17.7721 1.52778 17.5695C1.52778 16.1513 2.09114 14.7912 3.09394 13.7884C4.09674 12.7856 5.45683 12.2222 6.875 12.2222C8.29317 12.2222 9.65326 12.7856 10.6561 13.7884C11.6589 14.7912 12.2222 16.1513 12.2222 17.5695C12.2222 17.7721 12.3027 17.9664 12.446 18.1096C12.5892 18.2529 12.7835 18.3333 12.9861 18.3333C13.1887 18.3333 13.383 18.2529 13.5263 18.1096C13.6695 17.9664 13.75 17.7721 13.75 17.5695C13.748 15.7467 13.023 13.9992 11.7341 12.7103C10.4452 11.4215 8.69774 10.6965 6.875 10.6945Z" fill="#6E6E6E"/>
</svg>
