<svg width="19" height="20" viewBox="0 0 19 20" fill="none" xmlns="http://www.w3.org/2000/svg">
<g clip-path="url(#clip0_5_1512)">
<path d="M9.49992 6.83337C8.87361 6.83337 8.26137 7.0191 7.74062 7.36705C7.21986 7.71501 6.81398 8.20958 6.5743 8.78821C6.33462 9.36684 6.27191 10.0036 6.3941 10.6178C6.51629 11.2321 6.81788 11.7963 7.26075 12.2392C7.70362 12.6821 8.26786 12.9837 8.88213 13.1059C9.49641 13.228 10.1331 13.1653 10.7118 12.9257C11.2904 12.686 11.785 12.2801 12.1329 11.7593C12.4809 11.2386 12.6666 10.6263 12.6666 10C12.6666 9.16019 12.333 8.35473 11.7391 7.76087C11.1452 7.167 10.3398 6.83337 9.49992 6.83337ZM9.49992 11.5834C9.18677 11.5834 8.88065 11.4905 8.62027 11.3165C8.35989 11.1426 8.15695 10.8953 8.03711 10.606C7.91727 10.3166 7.88592 9.99828 7.94701 9.69115C8.0081 9.38401 8.1589 9.10189 8.38034 8.88046C8.60177 8.65902 8.88389 8.50822 9.19103 8.44713C9.49816 8.38604 9.81652 8.41739 10.1058 8.53723C10.3952 8.65707 10.6424 8.86001 10.8164 9.12039C10.9904 9.38077 11.0833 9.68689 11.0833 10C11.0833 10.42 10.9164 10.8227 10.6195 11.1196C10.3226 11.4166 9.91985 11.5834 9.49992 11.5834Z" fill="#6E6E6E"/>
<path d="M16.8578 11.5042L16.5063 11.3015C16.6645 10.4405 16.6645 9.5579 16.5063 8.69692L16.8578 8.49425C17.1281 8.33831 17.365 8.13065 17.5551 7.88313C17.7451 7.63562 17.8845 7.35309 17.9654 7.05169C18.0463 6.75029 18.067 6.43591 18.0263 6.1265C17.9857 5.81709 17.8845 5.51872 17.7286 5.24842C17.5726 4.97811 17.365 4.74117 17.1175 4.55112C16.87 4.36107 16.5874 4.22163 16.286 4.14077C15.9846 4.0599 15.6702 4.0392 15.3608 4.07983C15.0514 4.12046 14.7531 4.22164 14.4828 4.37758L14.1305 4.58104C13.4651 4.01256 12.7004 3.57186 11.875 3.28113V2.875C11.875 2.24511 11.6248 1.64102 11.1794 1.19562C10.734 0.750222 10.1299 0.5 9.5 0.5C8.87011 0.5 8.26602 0.750222 7.82062 1.19562C7.37523 1.64102 7.125 2.24511 7.125 2.875V3.28113C6.2996 3.57291 5.53522 4.01468 4.87034 4.58421L4.51646 4.37917C3.97056 4.06422 3.3219 3.97904 2.71319 4.14235C2.10448 4.30566 1.58557 4.7041 1.27063 5.25C0.955684 5.7959 0.870498 6.44456 1.03381 7.05327C1.19712 7.66198 1.59556 8.18089 2.14146 8.49583L2.49296 8.6985C2.33472 9.55948 2.33472 10.4421 2.49296 11.3031L2.14146 11.5058C1.59556 11.8207 1.19712 12.3396 1.03381 12.9483C0.870498 13.557 0.955684 14.2057 1.27063 14.7516C1.58557 15.2975 2.10448 15.6959 2.71319 15.8592C3.3219 16.0225 3.97056 15.9374 4.51646 15.6224L4.86875 15.419C5.53436 15.9875 6.29928 16.4282 7.125 16.7189V17.125C7.125 17.7549 7.37523 18.359 7.82062 18.8044C8.26602 19.2498 8.87011 19.5 9.5 19.5C10.1299 19.5 10.734 19.2498 11.1794 18.8044C11.6248 18.359 11.875 17.7549 11.875 17.125V16.7189C12.7004 16.4271 13.4648 15.9853 14.1297 15.4158L14.4835 15.62C15.0295 15.935 15.6781 16.0202 16.2868 15.8569C16.8955 15.6935 17.4144 15.2951 17.7294 14.7492C18.0443 14.2033 18.1295 13.5546 17.9662 12.9459C17.8029 12.3372 17.4045 11.8183 16.8585 11.5034L16.8578 11.5042ZM14.8406 8.51483C15.1087 9.48626 15.1087 10.5122 14.8406 11.4836C14.7938 11.6527 14.8045 11.8325 14.8709 11.9948C14.9374 12.1572 15.056 12.2929 15.2079 12.3805L16.0661 12.8761C16.248 12.9811 16.3808 13.1541 16.4352 13.3569C16.4896 13.5598 16.4612 13.776 16.3562 13.9579C16.2513 14.1399 16.0783 14.2726 15.8754 14.3271C15.6725 14.3815 15.4564 14.3531 15.2744 14.2481L14.4147 13.7509C14.2626 13.6628 14.0855 13.6279 13.9114 13.6515C13.7372 13.6752 13.5759 13.7561 13.4528 13.8815C12.7481 14.6009 11.8604 15.1142 10.8854 15.3659C10.7152 15.4097 10.5644 15.5088 10.4568 15.6477C10.3492 15.7866 10.2908 15.9573 10.2909 16.133V17.125C10.2909 17.335 10.2075 17.5363 10.059 17.6848C9.91054 17.8333 9.70917 17.9167 9.49921 17.9167C9.28925 17.9167 9.08789 17.8333 8.93942 17.6848C8.79095 17.5363 8.70754 17.335 8.70754 17.125V16.1338C8.70763 15.9581 8.64926 15.7874 8.54162 15.6485C8.43397 15.5096 8.28319 15.4105 8.113 15.3667C7.13795 15.1139 6.25047 14.5996 5.54642 13.8792C5.42334 13.7537 5.262 13.6728 5.08785 13.6491C4.9137 13.6255 4.73663 13.6605 4.58455 13.7485L3.72638 14.2449C3.63631 14.2977 3.53669 14.3322 3.43324 14.3463C3.3298 14.3605 3.22458 14.354 3.12365 14.3273C3.02271 14.3006 2.92805 14.2543 2.84511 14.1908C2.76218 14.1274 2.6926 14.0482 2.6404 13.9578C2.5882 13.8674 2.55439 13.7675 2.54093 13.664C2.52748 13.5605 2.53463 13.4553 2.56199 13.3545C2.58934 13.2538 2.63636 13.1594 2.70033 13.0769C2.76429 12.9944 2.84395 12.9254 2.93471 12.8738L3.79288 12.3782C3.94484 12.2905 4.06337 12.1548 4.12986 11.9925C4.19635 11.8301 4.20702 11.6503 4.16021 11.4812C3.89212 10.5098 3.89212 9.48388 4.16021 8.51246C4.20618 8.34374 4.19499 8.16455 4.1284 8.00286C4.0618 7.84116 3.94355 7.70607 3.79209 7.61867L2.93392 7.12308C2.75199 7.0181 2.61921 6.84515 2.5648 6.64227C2.51038 6.43939 2.53879 6.2232 2.64377 6.04127C2.74876 5.85934 2.92171 5.72656 3.12459 5.67215C3.32747 5.61773 3.54365 5.64614 3.72559 5.75113L4.58534 6.24829C4.737 6.33657 4.9137 6.37196 5.08767 6.34889C5.26164 6.32582 5.42301 6.2456 5.54642 6.12083C6.25107 5.40148 7.1388 4.88822 8.11379 4.63646C8.2845 4.59257 8.43568 4.49297 8.54338 4.35344C8.65108 4.21391 8.70913 4.04242 8.70834 3.86617V2.875C8.70834 2.66504 8.79174 2.46367 8.94021 2.31521C9.08868 2.16674 9.29004 2.08333 9.5 2.08333C9.70997 2.08333 9.91133 2.16674 10.0598 2.31521C10.2083 2.46367 10.2917 2.66504 10.2917 2.875V3.86617C10.2916 4.04188 10.35 4.21264 10.4576 4.35152C10.5652 4.49041 10.716 4.58954 10.8862 4.63329C11.8616 4.88595 12.7493 5.40032 13.4536 6.12083C13.5767 6.24629 13.738 6.32721 13.9122 6.35087C14.0863 6.37452 14.2634 6.33954 14.4155 6.25146L15.2736 5.75508C15.3637 5.70228 15.4633 5.66782 15.5668 5.65367C15.6702 5.63953 15.7754 5.64599 15.8764 5.67267C15.9773 5.69936 16.072 5.74575 16.1549 5.80917C16.2378 5.87258 16.3074 5.95178 16.3596 6.0422C16.4118 6.13262 16.4456 6.23247 16.4591 6.336C16.4725 6.43953 16.4654 6.54471 16.438 6.64547C16.4107 6.74622 16.3637 6.84057 16.2997 6.92309C16.2357 7.0056 16.1561 7.07465 16.0653 7.12625L15.2071 7.62183C15.056 7.70948 14.938 7.84467 14.8717 8.00634C14.8054 8.16801 14.7945 8.34708 14.8406 8.51563V8.51483Z" fill="#6E6E6E"/>
</g>
<defs>
<clipPath id="clip0_5_1512">
<rect width="19" height="19" fill="white" transform="translate(0 0.5)"/>
</clipPath>
</defs>
</svg>
